<?xml version="1.0" standalone="no"?>
<!DOCTYPE svg PUBLIC "-//W3C//DTD SVG 1.1//EN" "http://www.w3.org/Graphics/SVG/1.1/DTD/svg11.dtd">
<svg width="460" height="400" xmlns="http://www.w3.org/2000/svg" xmlns:xlink= "http://www.w3.org/1999/xlink"><g transform="translate(60,10)"><g transform="translate(0,360)" fill="none" font-size="10" font-family="sans-serif" text-anchor="middle"><path class="domain" stroke="#000" d="M0.5,6V0.5H370.5V6"></path><g class="tick" opacity="1" transform="translate(0.5,0)"><line stroke="#000" y2="6"></line><text fill="#000" y="9" dy="0.71em">0</text></g><g class="tick" opacity="1" transform="translate(53.357142857142854,0)"><line stroke="#000" y2="6"></line><text fill="#000" y="9" dy="0.71em">50</text></g><g class="tick" opacity="1" transform="translate(106.21428571428571,0)"><line stroke="#000" y2="6"></line><text fill="#000" y="9" dy="0.71em">100</text></g><g class="tick" opacity="1" transform="translate(159.07142857142856,0)"><line stroke="#000" y2="6"></line><text fill="#000" y="9" dy="0.71em">150</text></g><g class="tick" opacity="1" transform="translate(211.92857142857142,0)"><line stroke="#000" y2="6"></line><text fill="#000" y="9" dy="0.71em">200</text></g><g class="tick" opacity="1" transform="translate(264.7857142857143,0)"><line stroke="#000" y2="6"></line><text fill="#000" y="9" dy="0.71em">250</text></g><g class="tick" opacity="1" transform="translate(317.6428571428571,0)"><line stroke="#000" y2="6"></line><text fill="#000" y="9" dy="0.71em">300</text></g><g class="tick" opacity="1" transform="translate(370.5,0)"><line stroke="#000" y2="6"></line><text fill="#000" y="9" dy="0.71em">350</text></g></g><g fill="none" font-size="10" font-family="sans-serif" text-anchor="end"><path class="domain" stroke="#000" d="M-6,360.5H0.5V0.5H-6"></path><g class="tick" opacity="1" transform="translate(0,360.5)"><line stroke="#000" x2="-6"></line><text fill="#000" x="-9" dy="0.32em">0</text></g><g class="tick" opacity="1" transform="translate(0,331.7)"><line stroke="#000" x2="-6"></line><text fill="#000" x="-9" dy="0.32em">200</text></g><g class="tick" opacity="1" transform="translate(0,302.9)"><line stroke="#000" x2="-6"></line><text fill="#000" x="-9" dy="0.32em">400</text></g><g class="tick" opacity="1" transform="translate(0,274.1)"><line stroke="#000" x2="-6"></line><text fill="#000" x="-9" dy="0.32em">600</text></g><g class="tick" opacity="1" transform="translate(0,245.3)"><line stroke="#000" x2="-6"></line><text fill="#000" x="-9" dy="0.32em">800</text></g><g class="tick" opacity="1" transform="translate(0,216.5)"><line stroke="#000" x2="-6"></line><text fill="#000" x="-9" dy="0.32em">1,000</text></g><g class="tick" opacity="1" transform="translate(0,187.70000000000002)"><line stroke="#000" x2="-6"></line><text fill="#000" x="-9" dy="0.32em">1,200</text></g><g class="tick" opacity="1" transform="translate(0,158.89999999999998)"><line stroke="#000" x2="-6"></line><text fill="#000" x="-9" dy="0.32em">1,400</text></g><g class="tick" opacity="1" transform="translate(0,130.1)"><line stroke="#000" x2="-6"></line><text fill="#000" x="-9" dy="0.32em">1,600</text></g><g class="tick" opacity="1" transform="translate(0,101.30000000000001)"><line stroke="#000" x2="-6"></line><text fill="#000" x="-9" dy="0.32em">1,800</text></g><g class="tick" opacity="1" transform="translate(0,72.5)"><line stroke="#000" x2="-6"></line><text fill="#000" x="-9" dy="0.32em">2,000</text></g><g class="tick" opacity="1" transform="translate(0,43.69999999999999)"><line stroke="#000" x2="-6"></line><text fill="#000" x="-9" dy="0.32em">2,200</text></g><g class="tick" opacity="1" transform="translate(0,14.900000000000034)"><line stroke="#000" x2="-6"></line><text fill="#000" x="-9" dy="0.32em">2,400</text></g></g><g><circle cx="349.1425714285714" cy="29.04624000000001" fill="rgb(20,137,64)" r="5"></circle><circle cx="207.8025714285714" cy="287.850096" fill="rgb(4,130,66)" r="5"></circle><circle cx="328.3697142857143" cy="342.216" fill="rgb(105,172,56)" r="5"></circle><circle cx="209.0288571428571" cy="169.97198400000002" fill="rgb(159,193,51)" r="5"></circle><circle cx="98.40942857142858" cy="322.897968" fill="rgb(0,14,7)" r="5"></circle><circle cx="28.056571428571427" cy="356.9904" fill="rgb(0,129,66)" r="5"></circle><circle cx="25.02257142857143" cy="349.972704" fill="rgb(0,79,41)" r="5"></circle><circle cx="49.42142857142857" cy="331.344" fill="rgb(169,197,50)" r="5"></circle><circle cx="206.42828571428572" cy="356.032944" fill="rgb(176,200,49)" r="5"></circle><circle cx="43.068" cy="334.7856" fill="rgb(142,187,52)" r="5"></circle><circle cx="91.86571428571429" cy="356.765184" fill="rgb(171,198,50)" r="5"></circle><circle cx="44.12514285714286" cy="328.03776" fill="rgb(176,200,49)" r="5"></circle><circle cx="6.956" cy="334.489392" fill="rgb(114,175,55)" r="5"></circle><circle cx="49.08314285714286" cy="337.8528" fill="rgb(47,61,17)" r="5"></circle><circle cx="43.52257142857143" cy="344.7756" fill="rgb(177,201,49)" r="5"></circle><circle cx="29.187714285714286" cy="359.2368" fill="rgb(4,15,6)" r="5"></circle><circle cx="28.27857142857143" cy="331.931232" fill="rgb(1,10,5)" r="5"></circle><circle cx="93.02857142857144" cy="349.6608" fill="rgb(177,200,49)" r="5"></circle><circle cx="18.93342857142857" cy="349.965792" fill="rgb(0,13,6)" r="5"></circle><circle cx="17.74942857142857" cy="327.40416" fill="rgb(171,198,50)" r="5"></circle><circle cx="27.81342857142857" cy="352.148688" fill="rgb(131,149,37)" r="5"></circle><circle cx="20.44514285714286" cy="285.367392" fill="rgb(175,200,49)" r="5"></circle><circle cx="19.74742857142857" cy="343.311264" fill="rgb(179,201,49)" r="5"></circle><circle cx="24.11342857142857" cy="354.5568" fill="rgb(0,5,2)" r="5"></circle><circle cx="23.119714285714288" cy="346.32" fill="rgb(4,9,3)" r="5"></circle><circle cx="6.829142857142856" cy="355.536" fill="rgb(0,9,5)" r="5"></circle></g></g></svg>
